<svg xmlns="http://www.w3.org/2000/svg" viewBox="0 0 100 100">
  <ellipse cx="50" cy="65" rx="18" ry="22" fill="#2d2d2d"/>
  <ellipse cx="50" cy="35" rx="12" ry="10" fill="#3d3d3d"/>
  <g stroke="#2d2d2d" stroke-width="3" fill="none" stroke-linecap="round">
    <path d="M38 35 Q15 25 5 10"/>
    <path d="M38 40 Q10 40 2 50"/>
    <path d="M40 45 Q15 55 5 75"/>
    <path d="M42 50 Q25 65 15 90"/>
    <path d="M62 35 Q85 25 95 10"/>
    <path d="M62 40 Q90 40 98 50"/>
    <path d="M60 45 Q85 55 95 75"/>
    <path d="M58 50 Q75 65 85 90"/>
  </g>
  <circle cx="44" cy="32" r="3" fill="#ff6b6b"/>
  <circle cx="56" cy="32" r="3" fill="#ff6b6b"/>
  <circle cx="47" cy="28" r="2" fill="#ff6b6b"/>
  <circle cx="53" cy="28" r="2" fill="#ff6b6b"/>
</svg>
